<svg xmlns="http://www.w3.org/2000/svg" viewBox="0 0 64 64" role="img" aria-label="Burn">
  <title>Burn</title>
  <defs>
    <radialGradient id="g" cx="32" cy="24" r="38" gradientUnits="userSpaceOnUse">
      <stop offset="0" stop-color="#4b3a5f"/>
      <stop offset="1" stop-color="#351a18"/>
    </radialGradient>
    <filter id="s" x="-20%" y="-20%" width="140%" height="140%">
      <feDropShadow dx="0" dy="2" stdDeviation="2" flood-opacity=".35"/>
    </filter>
  </defs>
  <rect x="5" y="5" width="54" height="54" rx="14" fill="url(#g)" stroke="#ffb36c" stroke-width="3"/>
  <g filter="url(#s)" stroke-linecap="round" stroke-linejoin="round">
    
<path d="M34 51c9-4 13-12 8-22-2 5-5 6-8 4 4-10-3-17-8-22 1 9-7 13-9 23-2 9 5 15 17 17z" fill="#f07a2f" stroke="#ffd49a" stroke-width="2"/>
<path d="M31 48c4-3 6-7 3-13-2 4-4 4-6 3 1 5-4 7-3 12 1 3 3 4 6-2z" fill="#ffe06a" opacity=".9"/>

  </g>
</svg>
